<?xml version="1.0" standalone="no"?>
<!DOCTYPE svg PUBLIC "-//W3C//DTD SVG 20010904//EN"
 "http://www.w3.org/TR/2001/REC-SVG-20010904/DTD/svg10.dtd">
<svg version="1.0" xmlns="http://www.w3.org/2000/svg"
 width="600.000000pt" height="600.000000pt" viewBox="0 0 600.000000 600.000000"
 preserveAspectRatio="xMidYMid meet">

<g transform="translate(0.000000,600.000000) scale(0.100000,-0.100000)"
fill="#000000" stroke="none">
<path d="M1363 5686 c-71 -32 -68 -100 8 -177 27 -27 49 -57 49 -66 0 -9 -19
-34 -42 -54 -24 -21 -61 -53 -83 -73 l-40 -35 18 -29 c48 -83 1 -169 -105
-191 -43 -9 -64 -20 -83 -42 -29 -35 -32 -70 -9 -93 21 -21 30 -20 89 9 28 13
59 25 70 25 35 0 2 -18 -80 -45 -43 -14 -98 -37 -121 -50 -83 -49 -144 -148
-144 -233 0 -18 14 -66 31 -105 51 -116 76 -198 143 -467 72 -290 127 -438
251 -685 100 -199 179 -326 319 -513 128 -171 245 -291 406 -417 203 -159 406
-269 630 -343 238 -79 415 -109 809 -138 201 -15 258 -16 415 -6 99 7 208 17
241 22 33 5 105 14 160 20 65 6 131 20 188 40 110 38 160 45 215 31 39 -11 48
-10 95 13 29 14 86 30 127 36 93 13 157 36 170 60 17 31 11 76 -11 96 -18 16
-42 20 -164 24 -118 4 -146 8 -162 23 -19 16 -21 16 -38 -3 -35 -39 -83 -44
-169 -20 -62 17 -92 20 -149 15 -55 -5 -77 -3 -92 8 -19 14 -18 16 10 52 106
132 109 165 16 165 -49 0 -103 -38 -196 -135 l-70 -74 -90 20 c-291 63 -502
152 -735 310 -126 86 -216 169 -340 314 -212 249 -281 361 -353 572 -89 257
-109 391 -152 990 -13 185 -14 217 -1 247 15 36 41 56 75 56 10 0 70 -16 131
-35 117 -37 158 -42 191 -25 18 10 18 13 5 39 -37 70 -137 128 -346 197 -66
22 -143 56 -182 80 -37 24 -85 48 -107 55 -29 9 -43 19 -50 40 -14 40 -52 60
-144 76 -45 8 -102 24 -127 36 -44 22 -45 23 -42 65 6 66 -5 72 -122 72 -78 0
-107 4 -125 16 -25 18 -24 14 -5 135 5 31 1 42 -23 69 -24 27 -38 33 -79 36
-29 3 -62 -1 -81 -10z m117 -26 c11 -11 20 -29 20 -40 0 -18 -7 -20 -66 -20
l-66 0 5 -27 c5 -26 4 -26 -9 -8 -20 28 -17 50 12 84 31 37 74 41 104 11z
m185 -275 c0 -5 -20 -11 -44 -13 -40 -3 -43 -2 -31 13 14 17 75 17 75 0z m17
-114 c69 -24 118 -49 118 -60 0 -5 -9 -7 -20 -4 -17 5 -19 1 -17 -33 2 -36 0
-39 -25 -42 -50 -6 -147 110 -123 148 8 13 2 13 67 -9z m-68 -90 c17 -19 16
-20 -66 -24 -45 -2 -96 -8 -113 -11 -27 -6 -28 -6 -10 5 26 16 124 48 151 48
11 1 29 -8 38 -18z m326 -47 c0 -3 -5 -14 -10 -25 -8 -15 -6 -25 11 -49 28
-38 17 -51 -16 -20 l-25 23 0 -29 c0 -36 -25 -74 -48 -74 -9 0 -38 23 -63 51
-48 54 -76 60 -65 13 l7 -25 -33 17 c-57 29 -211 15 -330 -31 -10 -4 -18 -3
-18 2 0 11 71 33 300 92 85 22 169 45 185 50 34 10 105 14 105 5z m511 -145
c28 -53 -32 -144 -114 -173 -133 -47 -382 -96 -488 -96 -65 0 -110 -15 -249
-80 -69 -32 -140 -62 -158 -65 -31 -6 -33 -5 -28 13 10 29 -3 33 -72 20 -55
-10 -61 -14 -64 -37 -2 -20 -9 -27 -30 -29 -37 -4 -106 36 -125 72 -15 29 -14
31 11 52 34 30 33 34 -9 34 -66 0 -107 -80 -92 -176 8 -50 -10 -42 -38 19 -30
63 -31 82 -5 124 22 37 75 67 157 88 74 19 73 20 73 -13 0 -42 26 -70 81 -86
37 -11 57 -12 77 -5 l27 10 -34 28 c-32 27 -33 29 -15 40 18 11 18 12 1 24
-45 29 -52 36 -45 42 3 4 55 17 115 30 59 13 186 46 280 75 152 45 346 90 389
90 11 0 12 -4 4 -19 -5 -11 -10 -31 -10 -44 0 -19 6 -26 31 -31 17 -3 35 -3
40 0 16 10 10 50 -11 69 -11 10 -20 22 -20 26 0 9 64 15 207 17 95 2 103 0
114 -19z m279 -119 c24 -13 43 -47 34 -61 -4 -7 -12 -5 -23 5 -9 9 -29 27 -46
41 -29 24 -29 24 -7 25 13 0 32 -5 42 -10z m-388 -170 c22 -42 23 -138 4 -227
-10 -51 -10 -63 0 -63 25 0 38 -106 26 -205 -8 -58 -6 -72 6 -81 12 -9 14 -26
9 -88 -4 -60 -3 -76 8 -76 21 0 26 -16 15 -44 -6 -17 -14 -24 -25 -20 -17 7
-35 -31 -35 -74 l0 -27 19 31 c19 32 39 49 46 42 2 -2 11 -37 19 -78 23 -111
85 -331 103 -364 15 -27 14 -29 -10 -50 -32 -28 -42 -56 -19 -56 26 0 70 -40
92 -85 19 -40 19 -40 20 -11 l0 30 48 -50 c27 -27 74 -90 106 -141 31 -51 86
-124 122 -163 42 -46 63 -77 60 -87 -16 -40 100 -157 210 -215 38 -20 105 -47
149 -61 68 -22 88 -34 138 -82 73 -71 123 -94 204 -95 50 0 61 -3 57 -14 -8
-20 24 -35 135 -65 52 -15 96 -31 98 -37 5 -15 -69 -38 -104 -32 -77 14 -178
45 -273 83 -170 70 -244 75 -325 25 -46 -28 -53 -21 -20 19 36 42 26 39 -30
-9 -25 -22 -52 -40 -59 -40 -8 0 -31 21 -51 46 -34 42 -41 45 -74 42 -49 -6
-105 26 -91 52 8 14 6 19 -6 22 -14 3 -13 7 6 31 12 15 21 29 19 31 -2 2 -49
8 -105 14 -115 12 -175 36 -198 81 -23 43 -6 51 67 30 36 -10 38 -11 20 -25
-17 -13 -17 -15 4 -33 26 -21 99 -35 137 -25 14 3 26 9 26 12 0 3 -42 46 -92
97 -101 99 -169 139 -433 255 -121 53 -175 84 -175 100 0 12 72 -14 134 -49
69 -39 100 -45 121 -25 42 43 -39 151 -127 169 -14 2 -52 26 -83 52 l-58 47
47 13 c60 18 75 46 51 93 -19 36 -103 130 -116 130 -4 0 3 -24 16 -52 14 -29
25 -61 25 -71 0 -34 -22 -12 -42 42 -30 80 -118 126 -118 61 0 -35 -14 -39
-31 -9 -8 16 -17 20 -39 16 -39 -8 -62 20 -71 91 -7 54 -12 61 -75 120 -36 35
-64 65 -62 68 3 2 21 -3 41 -11 98 -41 118 13 38 104 l-38 45 -45 -37 c-66
-54 -71 -51 -67 42 l4 78 -24 -15 c-21 -15 -23 -21 -18 -74 l5 -58 -34 0 c-19
0 -34 -4 -34 -9 0 -5 33 -39 73 -75 51 -47 66 -66 53 -66 -11 0 -29 -9 -41
-20 -32 -30 -51 -16 -75 55 -21 62 -72 125 -102 125 -6 0 -4 8 5 18 10 10 17
23 17 29 0 12 -57 64 -86 81 -16 9 -14 14 20 56 45 56 75 60 107 15 l21 -30
-21 -15 c-25 -18 -27 -53 -6 -93 12 -25 42 -47 51 -39 1 2 5 35 9 73 5 57 3
76 -12 104 -26 50 -64 74 -118 76 -28 1 -50 7 -56 16 -26 40 -22 96 6 85 10
-3 15 1 15 13 0 37 33 62 88 69 44 6 56 12 70 35 16 26 16 29 -10 80 -36 70
-39 82 -24 103 10 13 21 16 44 11 70 -14 192 51 163 87 -11 13 -6 15 37 9 41
-4 53 -2 70 15 11 11 21 24 23 30 3 8 22 7 62 -4 79 -20 103 -15 58 14 l-35
21 30 11 c37 15 151 39 184 40 14 0 36 7 50 15 38 22 63 14 82 -25z m-712
-144 c0 -3 -4 -8 -10 -11 -5 -3 -10 -1 -10 4 0 6 5 11 10 11 6 0 10 -2 10 -4z
m-492 -38 c-3 -7 -11 -13 -18 -13 -7 0 -15 6 -17 13 -3 7 4 12 17 12 13 0 20
-5 18 -12z m388 -92 c38 -29 -23 -76 -80 -62 -38 9 -32 24 12 28 l37 3 -55 22
-55 22 61 0 c38 1 67 -4 80 -13z m-201 -46 c7 -11 -11 -40 -24 -40 -17 0 -43
28 -37 38 9 15 53 16 61 2z m69 -49 c3 -4 3 -11 0 -14 -8 -8 -34 3 -34 14 0
11 27 12 34 0z m-289 -21 c3 -5 1 -10 -4 -10 -6 0 -11 5 -11 10 0 6 2 10 4 10
3 0 8 -4 11 -10z m235 -15 c0 -8 -4 -15 -9 -15 -13 0 -22 16 -14 24 11 11 23
6 23 -9z m-2 -100 c3 -3 1 -10 -5 -16 -13 -13 -77 16 -68 31 5 8 61 -3 73 -15z
m-172 -70 c4 -14 4 -28 1 -31 -7 -8 -37 26 -37 42 0 24 29 15 36 -11z m148 9
c25 -24 20 -37 -11 -29 -34 8 -47 20 -39 34 10 16 32 14 50 -5z m-24 -54 c8
-5 12 -12 9 -15 -8 -8 -39 5 -39 16 0 11 11 11 30 -1z m-61 -132 c41 -88 59
-150 43 -156 -8 -2 -6 -14 7 -40 10 -20 28 -67 40 -103 12 -36 28 -75 36 -85
22 -29 18 -40 -6 -18 -31 27 -64 82 -94 155 -15 35 -44 100 -65 144 -21 44
-41 90 -45 103 -11 38 13 25 41 -23 28 -49 40 -58 28 -22 -26 80 -32 107 -24
107 5 0 22 -28 39 -62z m231 -102 c0 -11 -19 -15 -25 -6 -3 5 1 10 9 10 9 0
16 -2 16 -4z m50 -95 c0 -12 -21 -19 -37 -13 -22 8 -14 22 12 22 14 0 25 -4
25 -9z m200 -22 c0 -5 -4 -9 -10 -9 -5 0 -10 7 -10 16 0 8 5 12 10 9 6 -3 10
-10 10 -16z m109 -106 c5 -10 14 -44 21 -76 9 -43 22 -69 56 -109 49 -58 59
-94 22 -82 -13 3 -66 28 -118 54 -52 26 -105 51 -117 54 -21 7 -54 53 -68 95
-5 18 -2 21 19 21 14 0 55 -12 91 -27 51 -21 68 -24 77 -15 12 12 11 18 -17
85 -5 12 -3 17 9 17 8 0 19 -8 25 -17z m-515 -65 c18 -29 48 -87 65 -128 20
-48 58 -108 106 -168 40 -51 77 -102 80 -113 4 -11 24 -36 44 -55 37 -32 52
-60 86 -156 17 -50 55 -88 86 -88 12 0 33 -21 56 -57 42 -67 59 -82 90 -83 15
0 21 -5 17 -14 -7 -19 82 -116 106 -116 21 0 86 -43 111 -73 72 -87 -84 -43
-171 48 -25 26 -70 66 -101 90 -30 24 -81 75 -113 113 -66 81 -158 230 -150
243 3 5 1 9 -5 9 -18 0 -235 336 -287 445 -54 114 -69 155 -60 155 4 0 21 -24
40 -52z m326 -118 c0 -5 -4 -10 -10 -10 -5 0 -10 5 -10 10 0 6 5 10 10 10 6 0
10 -4 10 -10z m29 -141 c3 -11 -1 -10 -19 2 -13 9 -26 22 -29 30 -3 11 1 10
19 -2 13 -9 26 -22 29 -30z m489 9 c3 -15 -1 -16 -19 -9 -32 11 -38 34 -8 29
13 -1 25 -11 27 -20z m-176 -19 c43 -12 78 -25 78 -29 0 -4 -13 -13 -30 -20
-34 -14 -38 -27 -12 -46 16 -12 15 -13 -5 -14 -33 0 -28 -16 12 -42 19 -13 33
-27 31 -33 -2 -5 12 -27 31 -48 18 -21 31 -42 27 -48 -3 -6 6 -24 22 -40 15
-16 24 -29 20 -29 -15 0 -274 141 -286 155 -17 20 2 20 41 -1 49 -25 44 -10
-11 32 -33 25 -46 40 -38 46 9 5 5 15 -15 36 -32 33 -34 46 -7 39 15 -4 20 0
20 15 0 15 5 19 19 15 14 -3 17 0 14 14 -7 24 -6 24 89 -2z m-222 -49 c17 -13
20 -20 10 -20 -8 0 -26 9 -40 20 -17 13 -20 20 -10 20 8 0 26 -9 40 -20z
m-100 -70 c0 -15 -5 -12 -26 11 -19 22 -19 22 4 10 12 -6 22 -16 22 -21z m725
-200 c3 -5 1 -10 -4 -10 -6 0 -11 5 -11 10 0 6 2 10 4 10 3 0 8 -4 11 -10z
m-349 -40 c8 0 14 -5 14 -11 0 -12 -40 -2 -55 14 -7 7 -4 8 8 3 10 -3 25 -6
33 -6z m235 -31 c23 -11 39 -22 37 -24 -7 -8 -83 16 -98 31 -23 22 12 18 61
-7z m-136 -9 c8 -13 -15 -13 -35 0 -12 8 -11 10 7 10 12 0 25 -4 28 -10z m77
-68 c79 -30 94 -47 51 -59 -79 -21 -215 14 -248 63 -15 23 -15 25 6 33 30 10
104 -4 191 -37z m167 -11 c31 -16 70 -35 86 -42 l30 -13 -30 -4 c-44 -6 -95
13 -140 53 -51 44 -26 47 54 6z m117 15 c11 -8 37 -17 57 -21 62 -12 58 -29
-5 -22 -49 6 -148 41 -148 52 0 11 77 4 96 -9z m574 -77 c0 -5 -7 -9 -15 -9
-15 0 -20 12 -9 23 8 8 24 -1 24 -14z m-575 -49 c33 -13 32 -20 -4 -20 -16 0
-39 9 -52 21 l-24 20 27 -5 c15 -4 39 -11 53 -16z m-338 4 c-3 -3 -12 -4 -19
-1 -8 3 -5 6 6 6 11 1 17 -2 13 -5z m173 -4 c0 -5 -2 -10 -4 -10 -3 0 -8 5
-11 10 -3 6 -1 10 4 10 6 0 11 -4 11 -10z m815 -20 c3 -5 -1 -10 -10 -10 -9 0
-13 5 -10 10 3 6 8 10 10 10 2 0 7 -4 10 -10z m-653 -81 c49 -25 61 -44 22
-35 -44 11 -97 39 -102 55 -5 16 23 9 80 -20z m73 11 c3 -5 -1 -10 -9 -10 -8
0 -18 5 -21 10 -3 6 1 10 9 10 8 0 18 -4 21 -10z m-185 -20 c0 -5 -9 -10 -20
-10 -11 0 -20 5 -20 10 0 6 9 10 20 10 11 0 20 -4 20 -10z m2000 -80 c0 -5 -4
-10 -10 -10 -5 0 -10 5 -10 10 0 6 5 10 10 10 6 0 10 -4 10 -10z m-2035 -29
c-8 -13 -35 -15 -35 -2 0 5 8 11 18 13 21 5 26 2 17 -11z m209 -1 c-7 -7 -19
-7 -35 -1 -23 9 -22 10 11 10 23 1 31 -2 24 -9z m101 -21 c4 -6 5 -13 1 -16
-8 -8 -56 6 -56 17 0 13 47 13 55 -1z m240 -29 c-3 -5 -17 -10 -31 -10 -13 0
-24 5 -24 10 0 6 14 10 31 10 17 0 28 -4 24 -10z m1310 -10 c-3 -5 -13 -10
-21 -10 -8 0 -12 5 -9 10 3 6 13 10 21 10 8 0 12 -4 9 -10z m-1805 -50 c0 -5
-5 -10 -11 -10 -5 0 -7 5 -4 10 3 6 8 10 11 10 2 0 4 -4 4 -10z m463 3 c-7 -2
-21 -2 -30 0 -10 3 -4 5 12 5 17 0 24 -2 18 -5z m-383 -78 c58 -29 193 -87
300 -130 234 -93 343 -115 580 -121 297 -8 528 -19 535 -26 17 -16 -64 -23
-275 -22 -207 0 -245 3 -470 37 -253 38 -274 42 -374 72 -148 44 -509 212
-477 223 6 2 41 -13 77 -33 69 -39 199 -95 218 -95 6 0 -38 25 -99 55 -115 57
-195 113 -145 99 14 -3 72 -30 130 -59z m50 40 c0 -8 -6 -15 -14 -15 -17 0
-28 14 -19 24 12 12 33 6 33 -9z m935 -59 c10 -30 1 -52 -29 -70 -13 -9 -20
-7 -32 8 -11 16 -17 17 -26 8 -16 -16 -38 -15 -38 1 0 24 83 90 105 83 6 -1
14 -15 20 -30z m-125 -1 c-7 -8 -18 -15 -24 -15 -6 0 -2 7 8 15 25 19 32 19
16 0z m993 -16 c106 -12 116 -15 102 -29 -16 -16 -31 -16 -246 -11 -118 3
-139 9 -112 33 20 18 63 27 108 23 17 -2 83 -9 148 -16z m-765 -1 c-2 -6 -18
-22 -36 -36 -29 -22 -32 -23 -39 -7 -4 12 1 24 16 37 26 20 65 25 59 6z m1172
-8 c0 -5 -4 -10 -10 -10 -5 0 -10 5 -10 10 0 6 5 10 10 10 6 0 10 -4 10 -10z
m-200 -10 c0 -5 -4 -10 -10 -10 -5 0 -10 5 -10 10 0 6 5 10 10 10 6 0 10 -4
10 -10z m470 1 c-20 -14 -153 -25 -181 -15 l-24 8 25 7 c38 11 198 11 180 0z
m-2290 -21 c0 -5 -6 -10 -14 -10 -8 0 -18 5 -21 10 -3 6 3 10 14 10 12 0 21
-4 21 -10z m923 -22 c-13 -12 -25 -19 -29 -15 -10 10 16 37 34 37 13 0 12 -4
-5 -22z m-493 4 c0 -13 -12 -22 -22 -16 -10 6 -1 24 13 24 5 0 9 -4 9 -8z
m404 -17 c-18 -27 -44 -34 -44 -10 0 15 26 34 48 35 9 0 8 -7 -4 -25z m-604
-25 c58 -12 121 -29 140 -38 32 -15 33 -16 12 -20 -40 -6 -184 28 -247 59 -65
31 -62 31 95 -1z m790 10 c-24 -15 -37 -11 -16 5 11 8 22 12 25 9 3 -3 -1 -9
-9 -14z m-67 -12 c-13 -12 -25 -19 -29 -15 -10 10 16 37 34 37 13 0 12 -4 -5
-22z m118 -8 c-19 -16 -39 -26 -44 -23 -13 8 39 53 61 53 12 -1 7 -9 -17 -30z
m191 -142 c-9 -9 -15 -9 -24 0 -9 9 -7 12 12 12 19 0 21 -3 12 -12z"/>
<path d="M2231 4945 c-31 -27 -40 -45 -21 -45 6 0 10 6 10 14 0 7 14 17 31 22
17 5 31 13 31 19 -1 19 -20 15 -51 -10z"/>
<path d="M1754 4879 c-17 -5 -37 -16 -44 -24 -16 -19 -6 -19 47 1 32 12 49 14
65 7 25 -11 98 3 98 18 0 12 -125 10 -166 -2z"/>
<path d="M1675 4830 c-3 -5 -1 -10 4 -10 6 0 11 5 11 10 0 6 -2 10 -4 10 -3 0
-8 -4 -11 -10z"/>
<path d="M1565 4800 c-12 -19 16 -40 51 -40 41 0 46 21 9 38 -32 15 -52 15
-60 2z"/>
<path d="M1495 4790 c-3 -5 -2 -10 4 -10 5 0 13 5 16 10 3 6 2 10 -4 10 -5 0
-13 -4 -16 -10z"/>
<path d="M1496 4744 c-19 -19 -21 -34 -3 -34 6 0 33 -11 58 -25 26 -13 49 -22
52 -18 10 9 -21 60 -45 77 -28 20 -43 20 -62 0z"/>
<path d="M2254 4539 c-35 -68 -27 -179 12 -179 18 0 53 74 61 128 7 49 -9 32
-27 -28 -13 -40 -15 -42 -18 -18 -2 15 1 42 5 60 18 66 -5 91 -33 37z"/>
<path d="M1854 4376 c-4 -11 -1 -21 7 -27 17 -11 26 18 10 34 -7 7 -12 5 -17
-7z"/>
<path d="M1765 4360 c2 -14 5 -35 5 -47 0 -16 13 -31 40 -48 48 -30 70 -33 44
-4 -14 16 -16 22 -5 28 10 6 1 17 -32 40 -25 17 -48 36 -51 43 -4 7 -4 2 -1
-12z"/>
<path d="M1722 4245 c12 -12 150 -66 155 -61 7 7 -88 53 -127 61 -19 4 -32 4
-28 0z"/>
<path d="M1670 4224 c0 -3 8 -19 17 -34 12 -21 35 -35 89 -54 89 -32 93 -32
63 0 -46 49 -169 113 -169 88z"/>
<path d="M2210 4211 c0 -6 4 -13 10 -16 6 -3 7 1 4 9 -7 18 -14 21 -14 7z"/>
<path d="M1610 4182 c0 -18 87 -92 108 -92 33 0 27 16 -20 48 -58 39 -88 54
-88 44z"/>
<path d="M1612 4104 c23 -39 18 -42 -28 -13 -50 30 -41 11 22 -51 l55 -55 19
23 c28 34 13 71 -42 103 l-46 27 20 -34z"/>
<path d="M1769 4033 c12 -24 31 -39 31 -25 0 5 -10 17 -21 28 -22 19 -22 19
-10 -3z"/>
<path d="M1720 4029 c0 -5 5 -7 10 -4 6 3 10 8 10 11 0 2 -4 4 -10 4 -5 0 -10
-5 -10 -11z"/>
<path d="M2308 4005 c-3 -14 -1 -28 3 -31 5 -3 9 9 9 25 0 38 -6 40 -12 6z"/>
<path d="M2082 4000 c0 -14 2 -19 5 -12 2 6 2 18 0 25 -3 6 -5 1 -5 -13z"/>
<path d="M2164 3985 c-11 -61 1 -127 30 -170 15 -22 32 -40 38 -40 19 0 32 56
19 77 -6 10 -11 36 -11 59 0 32 -4 42 -19 46 -12 3 -21 15 -23 31 -5 40 -26
38 -34 -3z"/>
<path d="M2347 4014 c-4 -4 -7 -23 -6 -43 l1 -36 9 33 c11 36 9 58 -4 46z"/>
<path d="M1841 3980 c-2 -48 54 -195 83 -219 14 -12 19 -12 34 2 13 12 22 13
36 5 14 -8 17 -7 14 3 -3 8 1 22 10 31 13 16 12 21 -14 55 -92 121 -139 149
-98 58 41 -88 21 -88 -24 0 -23 44 -41 73 -41 65z"/>
<path d="M1730 3923 c0 -13 5 -23 10 -23 13 0 13 11 0 30 -8 12 -10 11 -10 -7z"/>
<path d="M1816 3891 c-8 -12 3 -41 15 -41 12 0 12 37 0 45 -5 3 -12 1 -15 -4z"/>
<path d="M2401 3694 c0 -11 3 -14 6 -6 3 7 2 16 -1 19 -3 4 -6 -2 -5 -13z"/>
<path d="M1985 3530 c3 -5 8 -10 11 -10 2 0 4 5 4 10 0 6 -5 10 -11 10 -5 0
-7 -4 -4 -10z"/>
<path d="M2456 3481 c-8 -13 10 -78 25 -86 5 -4 9 9 9 27 0 39 -23 78 -34 59z"/>
<path d="M2530 3250 c0 -19 3 -21 12 -12 9 9 9 15 0 24 -9 9 -12 7 -12 -12z"/>
<path d="M2650 3108 c0 -22 33 -55 38 -38 3 7 -5 22 -17 33 -18 18 -21 19 -21
5z"/>
<path d="M2764 2935 c8 -32 54 -96 75 -103 21 -7 -17 70 -51 103 l-30 30 6
-30z"/>
<path d="M2085 1647 c-44 -24 -96 -49 -115 -57 -48 -20 -46 -47 5 -76 22 -12
49 -34 60 -49 19 -25 20 -44 23 -518 2 -341 -1 -500 -8 -518 -7 -16 -28 -34
-51 -44 -29 -13 -39 -24 -39 -41 l0 -23 206 2 c178 3 207 5 215 19 12 22 -14
48 -47 48 -38 0 -91 26 -106 52 -10 18 -13 145 -15 622 -1 329 -4 605 -7 612
-9 22 -36 16 -121 -29z"/>
<path d="M4325 1669 c-16 -12 -67 -38 -112 -60 -101 -47 -107 -65 -33 -98 84
-38 80 -13 80 -570 0 -336 -3 -498 -11 -514 -6 -14 -30 -33 -53 -43 -32 -15
-41 -24 -41 -44 0 -28 -26 -26 271 -22 l155 2 -3 28 c-3 24 -8 28 -61 38 -81
17 -93 30 -101 118 -4 41 -2 84 3 99 10 25 75 77 96 77 6 0 39 -42 72 -93 33
-50 95 -134 138 -185 l77 -92 71 1 c40 1 104 4 142 8 70 6 70 6 70 36 0 29 -2
30 -50 36 -71 9 -110 32 -183 106 -59 62 -157 191 -197 260 l-19 33 29 31 c80
83 221 159 298 159 41 0 70 20 65 46 -3 17 -16 19 -163 25 -88 4 -184 8 -213
10 -57 3 -77 -8 -68 -39 5 -13 19 -21 45 -26 45 -7 67 -28 53 -51 -15 -29
-236 -206 -252 -203 -13 3 -16 65 -20 473 l-5 470 -25 2 c-14 1 -38 -7 -55
-18z"/>
<path d="M894 1581 c-15 -15 1 -43 34 -61 106 -56 102 -36 102 -567 0 -289 -4
-462 -11 -487 -13 -47 -50 -86 -82 -86 -28 0 -50 -21 -42 -41 4 -11 51 -14
248 -14 l242 0 3 22 c4 27 -19 39 -90 48 -26 3 -58 15 -72 26 l-26 20 0 241 0
241 127 -5 126 -5 29 -32 c15 -17 33 -51 39 -76 10 -40 15 -45 39 -45 l27 0 7
163 c3 89 7 176 9 192 2 27 -1 30 -28 30 -25 0 -30 -5 -38 -35 -20 -76 -28
-89 -61 -95 -17 -2 -85 -6 -151 -7 l-120 -3 -3 238 -2 237 27 11 c19 8 78 9
178 5 186 -8 207 -17 251 -100 59 -111 80 -98 94 54 5 63 10 120 10 125 0 10
-856 15 -866 6z"/>
<path d="M2799 1066 c-67 -19 -155 -61 -200 -97 -31 -25 -39 -37 -39 -64 0
-37 28 -65 65 -65 37 0 85 34 118 85 17 27 44 56 58 64 24 13 31 13 73 -3 62
-24 80 -58 81 -153 0 -42 -5 -77 -12 -84 -6 -6 -61 -24 -122 -40 -171 -43
-251 -85 -292 -153 -37 -61 -13 -171 48 -214 74 -52 172 -49 302 9 35 16 68
29 74 29 5 0 27 -16 48 -35 45 -41 74 -44 139 -14 69 31 112 67 108 92 -3 20
-8 22 -64 19 -42 -3 -64 1 -71 10 -8 9 -13 99 -15 270 -3 291 -4 292 -88 336
-51 25 -135 29 -211 8z m161 -505 c0 -109 -10 -124 -95 -146 -116 -30 -185 6
-185 98 0 66 67 117 184 142 90 18 96 13 96 -94z"/>
<path d="M3585 1063 c-108 -39 -155 -99 -155 -199 0 -109 39 -150 225 -239
136 -65 165 -90 165 -143 0 -54 -24 -80 -85 -91 -97 -18 -191 13 -250 82 -19
22 -35 44 -35 49 0 4 -11 8 -25 8 -28 0 -27 1 -25 -110 1 -45 6 -69 16 -77 22
-16 178 -43 253 -43 130 0 244 56 277 137 21 48 18 137 -6 183 -27 53 -63 78
-222 153 -80 38 -141 73 -147 85 -18 33 -13 87 8 106 31 28 97 39 156 25 41
-10 61 -23 107 -72 50 -51 62 -58 84 -53 21 6 25 11 20 29 -3 12 -11 51 -18
86 -11 59 -14 65 -47 79 -58 24 -235 27 -296 5z"/>
</g>
</svg>
